<svg id="Layer_1" data-name="Layer 1" xmlns="http://www.w3.org/2000/svg" viewBox="0 0 428.2 260.64"><defs><style>.cls-1{fill:none;stroke:#93b4e4;stroke-linecap:round;stroke-width:11.23px;}.cls-1,.cls-3{stroke-miterlimit:10;}.cls-2{fill:#b7ceec;}.cls-3{fill:#88ace3;stroke:#88ace3;stroke-width:0.81px;}.cls-4{fill:#93b4e4;}</style></defs><path class="cls-1" d="M263.13,49.65C345.23,12.13,409.84-6.07,421,13.7c14.3,25.45-66.71,98.14-181,162.34S21.54,271.64,7.24,246.18C-2.7,228.51,33.81,195.38,95,150.83"/><path class="cls-2" d="M349.33,146.18c5.54,67-53.29,87-127.38,93.09S86.55,235.43,81,168.38,131,42,205.12,35.89,343.78,79.14,349.33,146.18Z"/><path class="cls-2" d="M349.33,146.18c5.54,67-53.29,87-127.38,93.09S86.55,235.43,81,168.38,131,42,205.12,35.89,343.78,79.14,349.33,146.18Z"/><path class="cls-3" d="M174.59,168.77c3.37,25.09-10.12,38.93-28.72,41.43s-35.27-7.28-38.65-32.38,9-47.46,27.58-50S171.22,143.67,174.59,168.77Z"/><path class="cls-3" d="M294.86,160C296.7,186.45,281.64,200,262,201.39s-36.43-10-38.27-36.5,12.59-49.08,32.24-50.44S293,133.46,294.86,160Z"/><circle class="cls-4" cx="380.45" cy="82.18" r="28.63"/><path class="cls-1" d="M420.14,13.7c14.3,25.45-66.71,98.14-181,162.34S20.73,271.64,6.42,246.18"/></svg>