<svg id="Layer_1" data-name="Layer 1" xmlns="http://www.w3.org/2000/svg" viewBox="0 0 519.72 601.92"><defs><style>.cls-1{fill:#f1dfcc;stroke-width:11.49px;}.cls-1,.cls-3{stroke:#010101;stroke-miterlimit:10;}.cls-2{fill:#353535;}.cls-3{fill:#1e1615;stroke-width:15.32px;}</style></defs><path class="cls-1" d="M109.65,285.39s0,24.9,4.79,46,19.14,96.71,90,136,120.64-.95,137.87-13.4,56.5-72.77,65.11-135S371,99.64,371,99.64l-112-32.55-105.39,22L103.9,176.24Z"/><path d="M124.49,221.24s16.75-14.36,27.29-14.84,56,4.31,61.28,10.06a49.85,49.85,0,0,1,8.13,12.44s-54.57-6.22-68.46-5.26S124.49,221.24,124.49,221.24Z"/><path d="M296.36,228.72s15.79-20,22.5-20.95,49.78-6.71,57.44,0,17.08,20.95,17.08,20.95-31.12-6.59-42.13-6.11S296.36,228.72,296.36,228.72Z"/><ellipse cx="205.19" cy="302.69" rx="22.87" ry="56.15"/><ellipse cx="319.22" cy="302.69" rx="22.87" ry="56.15"/><path d="M288.92,372.55c0,25.44-11.42,46.06-25.51,46.06S237.9,398,237.9,372.55c0,0,11.42,9.56,25.51,9.56S288.92,372.55,288.92,372.55Z"/><path class="cls-2" d="M174.73,236a142.65,142.65,0,0,1,33.07,3.45c14,3.08,27.92,6.79,42,9.59,5,1,10.28-.08,15.42.18,11.43.6,22.32-3.17,33.35-5.76,9.77-2.3,19.44-5.36,29.29-6.95,8.24-1.34,16.67-1.44,25-1.4,14.36.07,28.61,2.09,42.79,4.86,7.72,1.51,15.42,3.16,23.14,4.73,2.13.44,4.14,3.24,4.15,6.45,0,5.91-.16,11.83-.33,17.74a2.15,2.15,0,0,1-.89,1.51c-4.76,2.44-7,7.31-8,13-1.08,6.18-1.67,12.48-2.5,18.72-1.91,14.3-4.44,28.41-9.68,41.54-1.32,3.33-2.83,6.85-5,9.27a27.72,27.72,0,0,1-8.42,5.79,81.17,81.17,0,0,1-43.46,8.72,67.37,67.37,0,0,1-32.71-10.95c-6.13-4.11-11.07-10.16-15.52-16.67A126.23,126.23,0,0,1,278.72,300c-1.35-5.19-2.81-10.34-4.46-15.4a6,6,0,0,0-2.64-3.3c-4.83-2.3-9.73-3.16-14.61,0a7,7,0,0,0-3,4.72,184.56,184.56,0,0,1-12.25,37.52c-5.89,12.67-12.84,24.32-23.13,32.18a62.22,62.22,0,0,1-31,12.71c-19,2.2-36.8-2.86-54-12.36-3.78-2.1-5.68-6.24-7.33-10.5-4.41-11.47-6.74-23.72-8.78-36-1.26-7.56-2.07-15.23-3.22-22.81a19.49,19.49,0,0,0-7.69-13.21,6.26,6.26,0,0,1-2.64-5.48c0-5.75.14-11.5.33-17.25a3.94,3.94,0,0,1,3-3.9c7.46-1.87,14.9-3.9,22.41-5.31,9.23-1.73,18.51-3.08,27.79-4.24C164.14,236.51,170.87,236.25,174.73,236ZM353.57,359.52c7.4-.59,15.48-1.25,23.35-4,12.26-4.28,20.74-13.1,23.42-28.81,1.32-7.71,2.68-15.47,3.32-23.29.74-9.13,1.61-18.36.09-27.54-1.33-8.06-3.41-15.95-9-21A49.49,49.49,0,0,0,382,247c-14.33-6.51-29.19-6.73-44.12-4.35-12.74,2-25,6.39-37,12a20.23,20.23,0,0,0-8.41,7.68,36.1,36.1,0,0,0-5.69,21.83A99.65,99.65,0,0,0,292.74,313c6.17,17.23,15.59,30.78,29.77,39C332.14,357.63,342.39,359.15,353.57,359.52Zm-175.65,1.55a110.83,110.83,0,0,0,11.53-1.24c13.47-2.63,25-9.87,34.16-22.32,9-12.28,14.17-26.8,16.62-42.92,1.2-7.82,1.53-15.52-1.07-23-2.13-6.14-5-12-10.21-14.49-19.11-9.26-38.81-15-59.57-13.68-9.48.6-18.71,2.57-27.37,7.43-4.25,2.38-8.68,4.47-11.67,9.3-5.07,8.19-7,17.62-6.82,27.62.23,11.46.86,22.95,3.11,34.15a146.26,146.26,0,0,0,4,15.6c3.14,9.86,9.84,15,17.57,18.51C157.12,360.06,166.41,361,177.92,361.07ZM110.74,260.24a37.66,37.66,0,0,0,2.86,2.54c2.48,1.81,5,1.05,6.67-1.81.86-1.45.88-2.52-.46-3.63C116.77,254.81,113.51,255.72,110.74,260.24Zm306.44-2.44c-1-1.17-1.54-2-2.21-2.62-2.42-2.32-5.54-2.17-7.52.38a2.66,2.66,0,0,0-.63,1.72c.49,2.73,3.61,4.85,5.76,3.77A39.19,39.19,0,0,0,417.18,257.8Z"/><path class="cls-3" d="M271.47,48.28s-2.88,44.39,70.62,78.51C363.87,136.9,425,293.86,412,341c-20.25,73.38-56.32,107.74-58.23,140.22-2.49,42.4-9.15,72.91-9.15,72.91,24.9-21.07,31.42-62.63,33.84-55.66,19,54.81,6.7,86.17,6.7,86.17S447,549.81,481.63,498c3.46-5.17-3.6,46.45-3.6,46.45s19.49-76.22,21.71-83.41c17.67-57.17,16.28-138.3-3.83-209.15S411.65,53.69,339.84,21.14,271.47,48.28,271.47,48.28Z"/><path class="cls-3" d="M271.86,9.65S291,21.47,290.06,46s-12.76,56.83-62,72.44C187.4,131.35,115.31,173,128.94,308.7c7.91,78.85,21.48,115.41,34.72,165C186,557.3,182.2,546.54,182.2,546.54s-13.6,14.31-41.37-42.18v72.57S97.6,577.85,87.07,551c0,0-15.32,17.24-23,24.9S-.07,556.06,8.55,521.59s30.65-155,37-223.3,6.06-144.06,70.47-209.18C194.89,9.41,242.5,3,271.86,9.65Z"/></svg>