<svg id="Layer_1" data-name="Layer 1" xmlns="http://www.w3.org/2000/svg" viewBox="0 0 466.97 662.13"><defs><style>.cls-1{fill:#323031;}.cls-1,.cls-2,.cls-3,.cls-4{stroke:#231f20;}.cls-1,.cls-2,.cls-4{stroke-linejoin:bevel;}.cls-1,.cls-2{stroke-width:17.13px;}.cls-2,.cls-4{fill:#f5e0cd;}.cls-3{fill:#29abe2;stroke-linejoin:round;stroke-width:22.13px;}.cls-4{stroke-width:20.83px;}.cls-5{fill:#231f20;}</style></defs><path class="cls-1" d="M39.69,232.08S36.36,353.75,25.75,462.62c-6,62-14,119.42-17.06,154.92-.89,10.3,3.41,36,3.41,36H137.68s-2.46-27.9-2.62-43.2c-.32-29.46,1.73-59.73,2.62-82.7C139,492.76,86,201.29,86,201.29Z"/><path class="cls-2" d="M61.55,272.92S50.81,238,38.73,239.36,20.61,250.1,21.28,260.84s10,63.76,20.11,73.83,23.51,21.48,25.53,24.16S61.55,272.92,61.55,272.92Z"/><path class="cls-3" d="M137.68,568.38"/><path class="cls-4" d="M226,57.48s-74.5-10.07-106,28.19S54.84,197.75,56.18,264.2,65.58,402.46,77.66,426,171,540.72,226,541.39s135.58-82.55,153-131.55S353.5,112.51,335.38,92.38,245.45,53.45,226,57.48Z"/><path class="cls-5" d="M91.08,213.19S123.3,179,133.36,179s54.37,2,60.41,17.11a85.75,85.75,0,0,1-26.18,3C153.5,198.42,100.48,205.14,91.08,213.19Z"/><path class="cls-5" d="M373.42,216.75s-34.73-31.67-44.77-30.9-54,6.15-58.92,21.67a86,86,0,0,0,26.33,1C310.06,206.79,363.44,209.44,373.42,216.75Z"/><ellipse class="cls-5" cx="157.1" cy="304.56" rx="67.62" ry="22.01" transform="translate(-150.26 456.1) rotate(-88.96)"/><ellipse class="cls-5" cx="279.55" cy="306.78" rx="67.62" ry="22.01" transform="translate(-32.26 580.71) rotate(-88.96)"/><path class="cls-5" d="M192.62,396s27,34,69.63,1.26c0,0-8.4,65.9-36,65.4S192.62,396,192.62,396Z"/><path class="cls-1" d="M213.23,23.92s-14.09-24.16-49-8.72S60.5,92.38,44.25,136s3.5,92.75,0,150.47,23,176.14,23,176.14,6.31-182.84,7.09-192.29,4.28-97.28,33.3-135.72,112-54,112-88.54C219.58,30,213.23,23.92,213.23,23.92Z"/><path class="cls-1" d="M219.63,34.66S211.89,6.9,242.76,10,364.91,34,412.57,150.1,436.47,419,451.23,493.53c7.38,37.25,7.73,75,6.83,95.23S449,643.7,449,643.7l-116,9.86s11.32-47.67,12.22-55.87c2.28-20.63.78-35.44-4.51-70-7.38-48.32-16-236.62-26.72-293.66s-24-110.19-51.66-136.37S214.6,82.27,219.63,34.66Z"/><path class="cls-1" d="M224.69,33.43S217,5.67,247.82,8.81,352,23.61,399.62,139.73c27,65.73-12.48,143.45-20.06,205.91S345.43,522,345.43,522c-7.38-48.33-15.72-232.17-26.46-289.22S295,122.58,267.31,96.4,219.66,81,224.69,33.43Z"/></svg>