<svg id="Layer_1" data-name="Layer 1" xmlns="http://www.w3.org/2000/svg" viewBox="0 0 538.86 740.38"><defs><style>.cls-1{fill:#392b22;stroke:#22160f;}.cls-1,.cls-2{stroke-linejoin:bevel;stroke-width:19.67px;}.cls-2{fill:#eac19c;stroke:#231f20;}.cls-3{fill:#1d1712;}.cls-4{fill:#231f20;}</style></defs><path class="cls-1" d="M446.6,231.65S458.7,343.18,443.92,395,284.11,493.3,287.16,574.92s29.07,66.82,68.28,105.38S326,711.79,326,711.79s92.68-21.28,79.66-40.68c0,0,31.92,3.45,17.95,30.84,0,0,29.27-30.42,23.11-84.32,0,0,27.25,33.53,22.38,49.9,0,0,13.08-42.1,14.75-77.8,0,0,13.58,33.44,9.83,54.44,0,0,12.32-70.48,3.69-116.38-3.75-19.95,16.8,3.69,32.37,18.85,0,0-31.2-76.4-32.17-89.37-.84-11.24.93-73.24,2.8-93.86C515,201.87,453.22,169.76,446.6,231.65Z"/><path class="cls-1" d="M84.33,241.74S112.89,335.1,127.68,387,241,504.78,238,586.39s16.06,55.6-23.16,94.17-42.89,55.81-42.89,55.81-20.36-45.6-7.34-65c0,0-26.83,11.65-12.86,39,0,0-44.08-34.67-37.92-88.57,0,0-15.9,21.16-11,37.53,0,0-23-23.39-24.62-59.09,0,0-20.41,6.05-16.66,27.06,0,0-33.54-25.43-27.18-71.69,11.52-83.81,14.82-75,12.7-115.56-.42-8-11,49.58-37.2,65.57,0,0,12.27-119.37,9.59-137.86-.59-4.1.61,4.48,0,0C-2.33,207.08,77.71,179.85,84.33,241.74Z"/><path class="cls-2" d="M274,563.87c-32.78.94-162.4-57.48-173-119.49C87.2,363.59,69.86,271.82,89.9,211.05S120.71,64.76,202.84,61.3s166.89,10,202.61,108.63,44.37,157.09,40.39,187-8.76,99.36-54,139.74S321.62,562.5,274,563.87Z"/><path class="cls-3" d="M118.29,254s28.78-27.86,37.53-28.08,55.48,3.79,60.43,7.5,10.88,14,10.88,14-58.7-3.3-72.5-.07S118.29,254,118.29,254Z"/><path class="cls-3" d="M326,246.48s23.22-11.41,29.69-10.11,43,12.4,43,12.4-18.68,6-36.52,3.27S338.54,261.24,326,246.48Z"/><path class="cls-1" d="M171.64,63.92S192.11,200.62,141,241.78s-59.37,37.27-59.37,37.27,36.13-43.43,40.88-59.82c0,0-56.06,85.89-72.45,84.92,0,0-2.56-46.43,3.63-66.32,0,0-28.62,64-43.12,64.91,0,0-5.69-35.84,14.22-83.16S93.84,34.22,171.64,63.92Z"/><path class="cls-1" d="M159.72,48.5s-38.33,24,.57,45,94.79,25.14,102.79,52.13,26,62.85,75.87,78.73S394,237,394,237s-12.31-50.95-17-54.22,10.45,72,57.49,100.32c0,0-10.08-21.58-6.55-41.55,0,0-12.19,24.51,29.1,63.56s43.81,37.63,31.41,58.18c0,0,40.71-29.53,20.41-93.25S461.36,106,398.42,56.53,268.16-14,159.72,48.5Z"/><ellipse class="cls-4" cx="192.59" cy="337.98" rx="78.6" ry="25.59" transform="translate(-147.68 526.51) rotate(-89.31)"/><ellipse class="cls-4" cx="334.94" cy="339.69" rx="78.6" ry="25.59" transform="translate(-8.74 670.53) rotate(-89.31)"/><path class="cls-4" d="M234.53,444s31.63,39.33,81,1c0,0-9.3,76.67-41.4,76.28S234.53,444,234.53,444Z"/></svg>