<svg id="Layer_1" data-name="Layer 1" xmlns="http://www.w3.org/2000/svg" viewBox="0 0 455.13 550.25"><defs><style>.cls-1{fill:#414142;stroke-width:15.16px;}.cls-1,.cls-2{stroke:#231f20;stroke-linejoin:bevel;}.cls-2{fill:#f5e0cd;stroke-width:18.44px;}.cls-3{fill:#231f20;}</style></defs><path class="cls-1" d="M70.86,226.21s-25.2,72.67,18.58,171.46c23.24,52.46,78.8,86.33,46.8,122.61C111.87,547.9-14.91,555.47,11.07,486.62s17.22-242.89,20.38-287S70.86,226.21,70.86,226.21Z"/><path class="cls-2" d="M201.46,499.94s32.67,2.69,48.83-14.6S331.56,430,347.1,392s27.26-142.32-1.39-205S245.35,85.71,214.61,86.16s-84.1-9.87-102.92,45.67-53.12,147-53.95,194.6S84.87,420.1,94.6,430.63s43.89,41.2,47.75,47.49S175,502.36,201.46,499.94Z"/><path class="cls-3" d="M97.1,215.65c2.24-.48,14.25-2.32,24.94.47s36.52-.08,38-1.87-40.13-15.51-62.85-6.1S97.1,215.65,97.1,215.65Z"/><path class="cls-3" d="M239,210.06s17.38-1.74,28.09-4.39,34-2.71,36.92.7c0,0-10.16-.51-14.91,1.76S255.7,217.62,239,210.06Z"/><path class="cls-1" d="M214.61,86.16S153.34,104,134.36,130.07c-37.08,51-112,180.16-112,180.16S14.73,120.67,92.2,55.9,223.85,10.78,223.85,10.78,253.93,47.75,214.61,86.16Z"/><path class="cls-1" d="M232.81,8.54s-24,17.72-17.78,37.27S236.21,98,268.42,127.55,338.14,374.46,317.28,491s119.41,4.14,127.93-29.86-6.7-194.8-38.09-271S319.68-4.23,232.81,8.54Z"/><ellipse class="cls-3" cx="140.19" cy="293.28" rx="57.56" ry="17.95" transform="translate(-155.46 428.39) rotate(-89.01)"/><ellipse class="cls-3" cx="240.03" cy="295.17" rx="57.56" ry="17.95" transform="matrix(0.02, -1, 1, 0.02, -59.24, 530.07)"/><path class="cls-3" d="M169.14,371.07s22,28.94,56.78,1.08c0,0-6.85,56.1-29.37,55.67S169.14,371.07,169.14,371.07Z"/></svg>