<?xml version="1.0" encoding="utf-8"?>
<!-- Generator: Adobe Illustrator 25.4.1, SVG Export Plug-In . SVG Version: 6.00 Build 0)  -->
<svg version="1.1" id="Layer_1" xmlns="http://www.w3.org/2000/svg" xmlns:xlink="http://www.w3.org/1999/xlink" x="0px" y="0px"
	 viewBox="0 0 526.52 659.13" style="enable-background:new 0 0 526.52 659.13;" xml:space="preserve">
<style type="text/css">
	.st0{fill:#F0D0B4;stroke:#231F20;stroke-width:21.2842;stroke-linejoin:bevel;stroke-miterlimit:10;}
	.st1{fill:#F5E0CD;stroke:#231F20;stroke-width:21.2842;stroke-linejoin:bevel;stroke-miterlimit:10;}
	.st2{fill:#231F20;stroke:#231F20;stroke-width:28.379;stroke-linejoin:bevel;stroke-miterlimit:10;}
	.st3{fill:#231F20;}
</style>
<g id="XMLID_86_">
	<path id="XMLID_95_" class="st0" d="M62.41,363.37c0,0-38.71-13.46-28.61,50.49c0,0,3.37,31.98,28.61,62.27
		c0,0,47.13,44.78,53.86,8.93c0,0,13.46-74.68,0-93.98C102.8,371.78,62.41,363.37,62.41,363.37z"/>
	<path id="XMLID_94_" class="st1" d="M111.57,418.37c0,0,50.49,152.8,65.64,163.08c15.15,10.28,72.37,52.35,80.79,57.4
		c8.42,5.05,89.2,23.56,109.4-10.1c20.2-33.66,48.81-77.89,58.91-95.33c10.1-17.44,37.03-81.4,31.98-125.16
		c-5.05-43.76,3.37-158.21-31.98-195.24s-37.03-119.5-163.26-63.96S118.3,349.37,111.57,418.37z"/>
	<path id="XMLID_93_" class="st2" d="M116.91,424.47c0,0,11.78-74.06,26.93-87.52c15.15-13.46,40.39-50.49,30.3-84.15
		c-10.1-33.66,104.35-69.05,126.23-71.55c21.88-2.5,126.23-19.88,146.43,105.79l8.42,112.82c0,0,13.46-62.11,30.3-73.45
		c16.83-11.33-20.2-66.88-20.2-66.88s26.93-33.66,45.44-40.39c18.51-6.73-127.92-346.72-338.3-136.33c0,0-147.33,13.87-158.26,98.02
		c0.05,84.22,20.25,196.52,20.25,196.52S83.25,352.09,116.91,424.47z"/>
	<ellipse id="XMLID_92_" class="st3" cx="258.86" cy="424.47" rx="21.17" ry="65.02"/>
	<ellipse id="XMLID_91_" class="st3" cx="376.63" cy="424.47" rx="21.17" ry="65.02"/>
	<path id="XMLID_90_" class="st3" d="M294.6,511.72c0,0,26.56,32.21,66.97,0c0,0-6.93,63.51-33.49,63.51S294.6,511.72,294.6,511.72z
		"/>
	<g id="XMLID_87_">
		<path id="XMLID_89_" class="st3" d="M203.2,341.84c0,0,20.74-18.76,32.58-15.8s42.95,5.43,53.32,15.8c0,0-9.87,2.96-17.77,2.96
			C263.43,344.8,226.89,339.86,203.2,341.84z"/>
		<path id="XMLID_88_" class="st3" d="M361.18,351.71c0,0,29.13-25.18,52.33-18.76c0,0,12.84,7.41,12.84,14.32
			C426.35,347.27,388.83,346.78,361.18,351.71z"/>
	</g>
</g>
</svg>
