<svg id="Layer_1" data-name="Layer 1" xmlns="http://www.w3.org/2000/svg" viewBox="0 0 461.87 685.72"><defs><style>.cls-1{fill:#151215;stroke:#28252b;stroke-width:7.87px;}.cls-1,.cls-2{stroke-miterlimit:10;}.cls-2{fill:#dbaf81;stroke:#231f20;stroke-width:15.74px;}.cls-3{fill:#231f20;}</style></defs><path class="cls-1" d="M400.88,441.69c.36,5.89-9.28,153.37-1.95,176.58,0,0-29-14.89-38.36-29.77,0,0-19.23,40.18-9.93,63.27,0,0-38.07-38.07-39-55.27s21.28-201.91,27.18-202.27S400.88,441.69,400.88,441.69Z"/><path class="cls-1" d="M128.62,580.52c2.67,7.64,17.32-90.12-9.68-137.54S84.76,403.37,78.5,365.55,65.43,326.8,78.06,282s9.3-63.45,9.92-72-3.45-40.56-9.55-37.6S35.34,169.13,34,190.34s-24.39,89.37-12,149S72.65,490.92,78.22,490.9,113.4,537.06,128.62,580.52Z"/><path class="cls-2" d="M171.29,503.45s-47.61-15.75-73-53.83S68.08,374.7,63,343.52s-13.9-102.25,6.86-152.06,37.72-63.4,83.85-93.67,134.28,35.5,142,66,23.39,132.32,23.69,155.44-.4,118.88-52,153.32S186.79,510,171.29,503.45Z"/><path class="cls-3" d="M171.12,246.15c-1.41,6.88-.48,7.72-9.21,6.78S122.05,242.62,117,240.31s-22.79,1.78-29.79,7.74-6.8-2.5,4.35-10.84,19-9.6,39.8-5.59S173.35,235.26,171.12,246.15Z"/><path class="cls-3" d="M273.92,235.21s-25,4-26.38,3.91-7.85,2-8.92,5-9,12-.07,10.69,26.59-4.89,34-3.07S298.29,249,298.29,249Z"/><path class="cls-1" d="M161.3,94.29A463.8,463.8,0,0,0,167.86,45c1.87-25.53-28.26-26.36-51-17S59.32,67,49.59,91.74,11,186.44,6,249,4.62,361.4,22.26,422.66,65.85,599.82,51,656.48c0,0,22.63-75.34,18.95-95.29,0,0,1,97.18-12,122.75,0,0,30.83-70.46,32-98.61,0,0,.83,47.11,8.76,67.37,0,0,11.76-86.5,12.18-108.87S63.83,390.16,60.32,375.74,35,312.58,41.23,269.24s25.85-96,42.25-106.25S161.3,94.29,161.3,94.29Z"/><path class="cls-1" d="M159.65,66.58s-13,25.57,9.52,37.48,37.22-2.72,79.1,76.07,83.24,136.78,59.58,207-54.59,122.43-41.13,184,68.56,96.65,68.56,96.65-8.87-12.93,1.13-96.89c0,0,16.28,66,47.45,84.43,0,0-8.11-60.14-2.85-84.65,0,0,13.09,39,67.91,82,0,0-34.1-61.23-42.6-102.92s56.48-206-2.29-330.64S304,43.74,277.74,22.7,224.22.09,196.33,9.26,159.65,66.58,159.65,66.58Z"/><ellipse class="cls-3" cx="248.14" cy="315.93" rx="19.04" ry="58.48" transform="translate(-5.68 4.55) rotate(-1.04)"/><ellipse class="cls-3" cx="142.24" cy="317.85" rx="19.04" ry="58.48" transform="translate(-5.73 2.63) rotate(-1.04)"/><path class="cls-3" d="M217.42,395s-23.36,29.4-60.23,1.09c0,0,7.27,57,31.15,56.56S217.42,395,217.42,395Z"/></svg>