<svg id="Layer_1" data-name="Layer 1" xmlns="http://www.w3.org/2000/svg" viewBox="0 0 573.75 726.54"><defs><style>.cls-1{fill:#f0d0b4;}.cls-1,.cls-2,.cls-4{stroke:#231f20;stroke-width:20.54px;}.cls-1,.cls-2,.cls-4,.cls-5,.cls-6{stroke-linejoin:bevel;}.cls-2{fill:#f5e0cd;}.cls-3{fill:#231f20;}.cls-4{fill:#2c292a;}.cls-5,.cls-6{fill:none;stroke:#d3d2d4;}.cls-5{stroke-width:5.13px;}.cls-6{stroke-width:4.45px;}</style></defs><path class="cls-1" d="M35.39,406.62s-12.06,3-5.87,27.15,15.78,48.41,18.05,59.6,12.41,46.54,44.14,44,23.39-10.48,23.39-10.48l-6.61-71.2L67,375.83Z"/><path class="cls-1" d="M501,527.16s16.91,1.32,22.64-17.35,15.58-66.31,14.53-90.29-64.29,66.68-64.29,66.68l18.66,40.73Z"/><path class="cls-2" d="M89,411.08c3.66,33.92,21.19,101.15,26.39,129.8s13.88,55.81,61.24,107S262.94,716,303.14,716.26s78.92-7.34,130.39-74.83,37.2-46.49,45.83-80.3,20.51-92.88,23.44-106.26,2.51-29.23,1.62-59.35-11.63-169-23.1-187.51-52.4-86.16-117.21-94.27-129.32-26.5-194,55.67S95.44,302,91.48,321.67,86.42,386.86,89,411.08Z"/><path class="cls-3" d="M249,296.81s-58.61-20.48-89.38-3.33-37.73,21.25-37.73,21.25l-6.67,10.7s59.1-19.54,82-12.92,43.18,16.58,46.9,5.56A113.33,113.33,0,0,0,249,296.81Z"/><ellipse class="cls-3" cx="223.41" cy="432.71" rx="84.91" ry="29.83" transform="translate(-215.25 644.21) rotate(-88.43)"/><ellipse class="cls-3" cx="389.32" cy="437.25" rx="84.91" ry="29.83" transform="translate(-58.41 814.47) rotate(-88.43)"/><path class="cls-3" d="M270.65,548s36.26,43.08,94.35,2.58c0,0-12,82.64-49.45,81.61S270.65,548,270.65,548Z"/><path class="cls-3" d="M394.46,317.06s-32.28-13.51-17.86-23,32.78-20.4,63.67-10.84,49.66,25.42,49.66,25.42-14.43-5.33-45-2.84S416.55,306.63,394.46,317.06Z"/><path class="cls-4" d="M391.05,154.49s-1.69-83,49.14-64.49,78.12,50.94,91.23,74.37c10,17.78,38.6,74.92,30.7,144.86l-27.6,111.68-5.44-21S523.82,424.52,521,433l-6.18-17.52s.4,21.81-8.39,30.13c0,0,4.1-80.66-15.8-104.4C404.61,238.63,437,170.17,391.05,154.49Z"/><path class="cls-4" d="M404.15,162.08S459.63,45.77,313.57,14.67C199.82-9.56,126.3,72.7,97.15,106.13s-80.71,107.56-87,170.61c0,0,20.55,118.67,18.27,151.72l12.35-27.23L54.9,445.61s6.32-8.58,6.74-24,19,49.69,19,49.69l3.52-19.61,10.74,28.76.66-23.27s-11.26-80.06-7.53-97.38,22.86-58.05,22.86-58.05v14.73S202.77,303,223.45,278c6.33-7.65,35.94-31.24,35.94-31.24,22.46,1.1,7.28,35.62,7.28,35.62,50.07-35.32,22-50.6,57.33-78.84,2.51-2-6.79,34.27,4.28,62.92,0,0-2.35-54.47,18.83-76.61C389.47,145.57,404.15,162.08,404.15,162.08Z"/><path class="cls-5" d="M70.09,542.54"/><path class="cls-5" d="M86.46,519.5c16.09.44,12.68,47.32-1.29,46.94-6.49-.18-10.09-7.87-10-19.61"/><line class="cls-5" x1="85.17" y1="566.44" x2="84.2" y2="601.87"/><path class="cls-6" d="M506.14,513.05c13.77-2.22,18.45,38.24,6.5,40.17-5.56.9-9.87-5.06-11.74-15.07"/></svg>