<svg id="Layer_1" data-name="Layer 1" xmlns="http://www.w3.org/2000/svg" viewBox="0 0 429.09 700.04"><defs><style>.cls-1,.cls-6{fill:#141215;}.cls-1{stroke:#28252b;}.cls-1,.cls-2,.cls-4,.cls-5,.cls-6{stroke-miterlimit:10;}.cls-1,.cls-2{stroke-width:16.04px;}.cls-2{fill:#dbae80;stroke:#231f20;}.cls-3,.cls-5{fill:#231f20;}.cls-4{fill:none;}.cls-4,.cls-5{stroke:#323031;stroke-width:3.24px;}.cls-6{stroke:#2a292d;stroke-width:8.02px;}</style></defs><path class="cls-1" d="M40.28,279.1s-27.67,47.66-14.62,79.28,28.21,76.54,28.85,100.67S35.42,544.9,58.2,554c24.42,9.79,4.3,77.52,13.27,92,21,34,74-15.85,78-29.58C182.85,502.72,40.28,279.1,40.28,279.1Z"/><path class="cls-1" d="M97.85,130.9c1.94-2.82,25.06-28,47.18-37s69.82-15.79,39.81-39.45-84-20.24-120.69,10-32,43.38-51.42,83.5c-8.08,16.69,4.77,55.69-3.63,79.16s35.16,73.63,36.46,86.58l39.41-52Z"/><path class="cls-1" d="M207.62,83s-65.5-26-39.8-57.52C195.42-8.46,303.76,10.2,324.23,54.88s59.27,138.73,63,168.48-17.77,171.27,8,210.26c34.33,51.9.33,69.61,19.58,106.62s-12.31,11-12.31,40.55c0,15.61,18.92,52.39,4.46,65.25-52.89,47-100.81,64.54-101.35,21.06-.55-43.94-38.68-16.77-42.84-56.21s12.68-33.13,0-71.34,16.15-35.3,28.71-73.91S295.46,362,295.46,362,317.09,114.62,207.62,83Z"/><path class="cls-2" d="M191,75.55s-36.23-.52-81.77,34.23S60.16,265.3,58.35,289.47,71.79,376,73.13,391.31,126.31,491.43,209.68,489s120.23-99.59,118.89-114.93,10.77-82.48,8.39-94S294.17,73.9,191,75.55Z"/><path class="cls-3" d="M139.4,231.08s18.65-2.18,18.67-8.15-14.86-16.45-32-14.27-45.57,22.23-45.57,22.23a41.52,41.52,0,0,0,25.36.08C119.27,226.54,139.4,231.08,139.4,231.08Z"/><path class="cls-3" d="M220,224.7s13,11.93,27.36,4.11,47.6-10.08,55.12-5.32,1-11.85-11-14.46S224.06,197.47,220,224.7Z"/><ellipse class="cls-3" cx="139.41" cy="299.5" rx="19.4" ry="59.59" transform="translate(-4.74 2.25) rotate(-0.91)"/><ellipse class="cls-3" cx="247.33" cy="297.79" rx="19.4" ry="59.59" transform="translate(-4.7 3.96) rotate(-0.91)"/><path class="cls-3" d="M173.43,378.93s24.81,29.13,61.38-1c0,0-5.43,58.29-29.77,58.68S173.43,378.93,173.43,378.93Z"/><path class="cls-4" d="M43.62,306.28c-2.82-.74-5.62-1.55-8.42-2.44,1.2,11,2.66,22.28,4.93,30,5.56,18.75,19.63,37,64.05,33.4s53.92-13.46,62-31c1.84-4,3.26-10.5,4.78-17.94-2.42-.26-.89-4.56-3.31-4.77"/><path class="cls-4" d="M227.86,306.21c-3.13,1.17-2.12,10.32-5.25,11.55,1.46,3.4,3.1,6.92,5.11,10.66,20.09,37.56,53.68,28.94,71.15,28.49s31.18-.92,49.22-16.24C357.23,332.9,365,303.9,369,276.81L363.53,278"/><path class="cls-5" d="M225.6,284.36c-7.29-47.4,49.38-50.78,73-51.35,56.22-1.33,67,13.6,67.4,26.27.12,3.76-.8,10.56-2.5,18.69l5.44-1.16c3.83-26.32,4-50.83-1.8-52.22-11.79-2.82-66.4-3.25-100.13-.56-38.75,3.08-40.32,30.6-70.57,33.18-25.08,2.15-18.83-11.11-51.85-18.46S54.39,242.64,44.44,247s-18,3.21-18,3.21-6.61-1.69-5.73,11,5.64,4.43,9.39,10c2.21,3.27,3.37,18.63,5.09,34.52q4.19,1.33,8.42,2.44c-.43-13.62.17-27.43.65-35.78,1.05-18.16,31.29-26,61.08-26.63,60.94-1.31,65.54,19.64,66.43,30.11.74,8.76-.85,16.85-6,35.94,2.42.2,2.82,8.05,5.24,8.31,4.27-20.92,9.32-49.16,26.64-49.06,18,.1,11.71,16.18,24.93,46.77,3.13-1.23,2.12-10.38,5.25-11.55C225.37,298,227.41,296.08,225.6,284.36Z"/><path class="cls-6" d="M178,82.73s103.47,24.43,118.54,103.1c13.94,72.76,94.41,141.84,93.75,169.28,0,0,6.45-55-7.85-88.34-22.94-53.55-25.61-133-30.25-146.87C336.57,73.24,299.84,65.32,284.57,53c-32-25.94-37-43-86.19-36.07S178,82.73,178,82.73Z"/></svg>